<svg xmlns="http://www.w3.org/2000/svg" xmlns:xlink="http://www.w3.org/1999/xlink" viewBox="0 0 368.11 60.14"><defs><style>.cls-1{fill:none;}.cls-2{isolation:isolate;}.cls-3{fill:#020c6a;}.cls-4{fill:url(#linear-gradient);}.cls-5{fill:url(#linear-gradient-2);}.cls-6{fill:url(#linear-gradient-3);}.cls-7{fill:url(#linear-gradient-4);}.cls-8{fill:url(#linear-gradient-5);}.cls-9{fill:url(#linear-gradient-6);}.cls-10{fill:url(#linear-gradient-7);}.cls-11{fill:url(#linear-gradient-8);}.cls-12{clip-path:url(#clip-path);}.cls-13{clip-path:url(#clip-path-2);}.cls-14{fill:url(#linear-gradient-9);}.cls-15{fill:url(#linear-gradient-10);}.cls-16{fill:url(#linear-gradient-11);}.cls-17,.cls-18{mix-blend-mode:multiply;}.cls-17{fill:url(#linear-gradient-12);}.cls-18{fill:url(#linear-gradient-13);}.cls-19{fill:url(#linear-gradient-14);}.cls-20{fill:url(#linear-gradient-15);}.cls-21{fill:url(#linear-gradient-16);}</style><linearGradient id="linear-gradient" x1="63.96" y1="26.46" x2="96.7" y2="21.75" gradientUnits="userSpaceOnUse"><stop offset="0" stop-color="#1f32b3"/><stop offset="1" stop-color="#c735f7"/></linearGradient><linearGradient id="linear-gradient-2" x1="-58.13" y1="186.86" x2="-24.97" y2="201.88" gradientTransform="translate(-32.34 -141.4) rotate(-45)" xlink:href="#linear-gradient"/><linearGradient id="linear-gradient-3" x1="102.93" y1="31.96" x2="85.64" y2="50.93" xlink:href="#linear-gradient"/><linearGradient id="linear-gradient-4" x1="108.35" y1="30.34" x2="83.47" y2="61.47" xlink:href="#linear-gradient"/><linearGradient id="linear-gradient-5" x1="107.1" y1="35.76" x2="89.81" y2="54.74" xlink:href="#linear-gradient"/><linearGradient id="linear-gradient-6" x1="109.78" y1="31.48" x2="84.87" y2="62.64" xlink:href="#linear-gradient"/><linearGradient id="linear-gradient-7" x1="106.11" y1="34.85" x2="88.82" y2="53.83" xlink:href="#linear-gradient"/><linearGradient id="linear-gradient-8" x1="108.85" y1="30.75" x2="83.95" y2="61.9" xlink:href="#linear-gradient"/><clipPath id="clip-path"><path id="SVGID" class="cls-1" d="M81.33,11.43a24.23,24.23,0,1,0,24,24.23A24.12,24.12,0,0,0,81.33,11.43ZM81.22,21A14.62,14.62,0,0,1,95.78,35.66C95.78,43.75,73.18,21,81.22,21Z"/></clipPath><clipPath id="clip-path-2"><path id="SVGID-2" data-name="SVGID" class="cls-1" d="M72.44,43.49s5.94,4.61,9.77,5.95a27.33,27.33,0,0,0,9,1.65c1.92,0,5.35.14,6.38-.35s2.76-.94,3.18-1.3a29,29,0,0,1,5.11-1.87,11.68,11.68,0,0,0,4.45-3.44c1.1-1.61,4.87-6.62,3.22-7.24s-20.07-1-21.41,0S72.44,43.49,72.44,43.49Z"/></clipPath><linearGradient id="linear-gradient-9" x1="-879.69" y1="5.96" x2="-842.07" y2="5.96" gradientTransform="matrix(-1, -0.09, -0.09, 1, -767.44, -32.99)" xlink:href="#linear-gradient"/><linearGradient id="linear-gradient-10" x1="-877.84" y1="9.22" x2="-842.07" y2="9.22" gradientTransform="matrix(-1, -0.09, -0.09, 1, -767.44, -32.99)" xlink:href="#linear-gradient"/><linearGradient id="linear-gradient-11" x1="-873.51" y1="11.67" x2="-842.07" y2="11.67" gradientTransform="matrix(-1, -0.09, -0.09, 1, -767.44, -32.99)" xlink:href="#linear-gradient"/><linearGradient id="linear-gradient-12" x1="70.88" y1="47.83" x2="106.84" y2="47.83" gradientUnits="userSpaceOnUse"><stop offset="0" stop-color="#00afff"/><stop offset="1" stop-color="#00f3f0" stop-opacity="0"/></linearGradient><linearGradient id="linear-gradient-13" x1="70.88" y1="50.35" x2="102" y2="50.35" xlink:href="#linear-gradient-12"/><linearGradient id="linear-gradient-14" x1="60.94" y1="54.3" x2="102.55" y2="54.3" xlink:href="#linear-gradient"/><linearGradient id="linear-gradient-15" x1="55.38" y1="49.75" x2="102.55" y2="49.75" xlink:href="#linear-gradient"/><linearGradient id="linear-gradient-16" x1="52.56" y1="43.14" x2="102.56" y2="43.14" xlink:href="#linear-gradient"/></defs><title>hostever-logo</title><g class="cls-2"><g id="Layer_1" data-name="Layer 1"><path class="cls-3" d="M37.35,34.11H11.91V59.38H0V0H11.91V24.42H37.35V0H49.26V59.38H37.35Z"/><path class="cls-3" d="M133,60.14c-11.83,0-20.08-6.89-20.59-15.65h12c.42,3.58,3.74,6.3,8.5,6.3s7.23-2.13,7.23-4.85c0-8.42-26.62-3.06-26.62-20.33,0-7.83,7-14.12,18.63-14.12,11.4,0,18.29,6.21,19,15.56h-11.4c-.34-3.66-3.23-6.12-7.91-6.12-4.43,0-6.72,1.78-6.72,4.51,0,8.59,26.11,3.23,26.45,20.5C151.51,54,144.45,60.14,133,60.14Z"/><path class="cls-3" d="M161.47,22h-5.62V12.25h5.62V.6h12V12.25H184V22H173.46v22.8c0,3.15,1.28,4.51,5,4.51H184v10h-7.48c-9,0-15.06-3.83-15.06-14.63Z"/><path class="cls-3" d="M249.43,12.25l11.91,36.16,11.91-36.16h12.68L268.49,59.38H254L236.67,12.25Z"/><path class="cls-3" d="M211.49,11.49c-14,0-23.65,9.44-23.65,24.32s9.95,24.33,23.65,24.33c11.65,0,19.48-6.89,22-15.56H220.68c-1.53,3.14-4.34,5.7-9.45,5.7-5.95,0-10.71-3.92-11.31-10.89h34.45a27.32,27.32,0,0,0,.34-4.6C234.71,20.76,225.1,11.49,211.49,11.49ZM200,31.39c.94-6.46,5.45-10.12,11.15-10.12,6.12,0,11.06,3.91,11.23,10.12Z"/><path class="cls-3" d="M334.76,34.79c0-14-9.61-23.3-23.22-23.3-14,0-23.65,9.44-23.65,24.32s9.95,24.33,23.65,24.33c11.65,0,19.48-6.89,22-15.56H320.72c-1.53,3.14-4.34,5.7-9.44,5.7-5.95,0-10.72-3.92-11.31-10.89h34.45A27.32,27.32,0,0,0,334.76,34.79Zm-34.71-3.4c.94-6.46,5.45-10.12,11.15-10.12,6.12,0,11.06,3.91,11.22,10.12Z"/><path class="cls-3" d="M353.65,59.38H341.74V12.25h11.91v7.32a16.35,16.35,0,0,1,14.46-8v12.5H365c-7.06,0-11.31,2.73-11.31,11.83Z"/><path class="cls-4" d="M96,20.8A20.94,20.94,0,0,0,60.28,35.6h6.36A14.58,14.58,0,0,1,91.53,25.3l-2.62,2.62L101,28.8A20.83,20.83,0,0,0,96,20.8Z"/><path class="cls-5" d="M101,22.23l-.47-5.74L98.2,18.84A23.94,23.94,0,0,0,57.33,35.77h5.58a18.37,18.37,0,0,1,31.35-13,18.5,18.5,0,0,1,3.91,5.8l3.39.25Z"/><polygon class="cls-1" points="103.38 24.48 103.84 30.2 103.86 30.2 103.38 24.48"/><path class="cls-6" d="M96.42,50a22,22,0,0,0,2-2.44l.29-.43.28-.44c.37-.59.7-1.19,1-1.81.15-.3.29-.61.43-.92h0c.13-.31.26-.62.38-.94s.27-.73.38-1.11c.08-.22.14-.45.2-.68l.08-.26.12-.47c0-.16.07-.31.1-.47s0-.21.07-.31l0-.21.12-.73c0-.24.07-.48.1-.72s0-.49.07-.73c0-.08,0-.16,0-.24l0-.55c0-.17,0-.34,0-.5v-.24c0-.36,0-.71,0-1.07,0-.11,0-.23,0-.35s0-.39,0-.59l0-.3h0c0-.19,0-.38-.07-.57s0-.23,0-.34c-.09-.61-.21-1.21-.35-1.81l0-.11-6.85-.58c.06.14.11.28.16.41a1.34,1.34,0,0,1,.07.18c0,.06,0,.13.07.2s0,.1,0,.16,0,.16.08.24a1.54,1.54,0,0,1,0,.17c.07.22.12.43.18.64l.09.41c0,.07,0,.14.05.21s.07.36.1.54l0,.2a1.36,1.36,0,0,1,0,.2l0,.19c0,.06,0,.11,0,.17s0,.38.05.57a.86.86,0,0,1,0,.16s0,.06,0,.09a1.34,1.34,0,0,0,0,.2v.2a14.48,14.48,0,0,1-4.26,10.7,13.4,13.4,0,0,1-1.4,1.23l-.14.11-.3.22-.15.11-.15.1-.45.3c-.41.25-.83.49-1.26.7l-.48.22A19.05,19.05,0,0,0,96.42,50Z"/><path class="cls-7" d="M101.78,31.66c.06.3.11.6.16.91,0,.11,0,.23,0,.34s0,.18,0,.26l0,.31h0l0,.3c0,.2,0,.4,0,.59s0,.24,0,.35c0,.36,0,.71,0,1.07v.55a1.21,1.21,0,0,0,0,.19l0,.55c0,.08,0,.16,0,.24,0,.24,0,.49-.07.73s-.06.48-.1.72l-.12.73,0,.21c0,.1-.05.21-.07.31s-.07.31-.1.47l-.12.47-.08.26c-.06.23-.12.46-.2.68-.11.38-.24.75-.38,1.11s-.25.63-.38.94h0c-.14.31-.28.62-.43.92-.31.62-.64,1.22-1,1.81l-.28.44-.29.43a22,22,0,0,1-2,2.44,30.93,30.93,0,0,0,4.81-.91,24.13,24.13,0,0,0,2.32-22.59l.34,4.35-2.33-.2,0,.11C101.66,31.06,101.73,31.36,101.78,31.66Z"/><path class="cls-8" d="M100.81,43c.14-.36.27-.73.38-1.11C101.08,42.28,101,42.65,100.81,43Z"/><path class="cls-9" d="M100.81,43c.14-.36.27-.73.38-1.11C101.08,42.28,101,42.65,100.81,43Z"/><path class="cls-10" d="M101.76,39.71l0-.21.12-.73-.12.73,0,.21c0,.1-.05.21-.07.31s-.07.31-.1.47c0-.16.07-.31.1-.47S101.73,39.81,101.76,39.71Z"/><path class="cls-11" d="M101.76,39.71l0-.21.12-.73-.12.73,0,.21c0,.1-.05.21-.07.31s-.07.31-.1.47c0-.16.07-.31.1-.47S101.73,39.81,101.76,39.71Z"/><g class="cls-12"><g class="cls-13"><path class="cls-14" d="M70.87,46.74h0a21,21,0,0,0,36-.62h0a20.72,20.72,0,0,0,2.42-6.57,14.62,14.62,0,0,0-9.48-1.17C88.9,40.29,86.32,52.91,70.87,46.74Z"/><path class="cls-15" d="M70.88,46.75a21,21,0,0,0,36-.63,9.73,9.73,0,0,0-7.26-1.48c-4.44.73-9.91,5.59-15.38,6.06a20,20,0,0,1-13.3-3.93h0Z"/><path class="cls-16" d="M70.88,46.75A20.95,20.95,0,0,0,102,51.85c-.62-.72-2.45-2.24-6.65-1.24-5.43,1.29-7.65,3.59-13.1,2.54A19.2,19.2,0,0,1,70.9,46.77h0Z"/><path class="cls-17" d="M70.88,46.75a18.83,18.83,0,0,0,17.65,3.53c4.17-1.33,8.11-4.44,11.73-4.84a9.38,9.38,0,0,1,5.89,1.79q.36-.54.69-1.11a9.73,9.73,0,0,0-7.26-1.48c-4.44.73-9.91,5.59-15.38,6.06a20,20,0,0,1-13.3-3.93h0Z"/><path class="cls-18" d="M70.88,46.75l0,0a19.59,19.59,0,0,0,12.49,7c4.13.57,6.75-.84,8.54-1.37s4.31-1.45,6.12-1.28a4.2,4.2,0,0,1,3,1.4l.92-.71c-.62-.72-2.45-2.24-6.65-1.24-5.43,1.29-7.65,3.59-13.1,2.54A19.2,19.2,0,0,1,70.9,46.77h0Z"/></g><path class="cls-19" d="M102.55,48.72l0,0a26.08,26.08,0,0,1-17.34,7.89c-5.55.28-8.85-1.88-11.16-2.8s-5.54-2.4-8-2.38A5.58,5.58,0,0,0,61.9,53c-.07-.06,0,0,0,0l.14.12c.44.38.89.75,1.36,1.11l.17.13.65.47.06,0,.7.48.2.13.63.39.12.07c.24.15.48.29.73.42a.94.94,0,0,0,.22.12c.2.12.4.22.61.33l.17.09.75.37.22.1.63.28.19.08.79.31.22.09.64.23.22.08.81.26.2.06.68.19.23.06.84.2.18,0,.72.15.23,0,.87.15.14,0,.78.1.23,0c.3,0,.6.06.91.09h.08l.84,0h2.26c.2,0,.41,0,.61,0l.43,0,.41,0,.38,0,.45,0,.36,0,.46-.06.5-.08.32-.05.49-.1.32-.06.64-.15.16,0,.7-.18.09,0,.75-.22h0A27.85,27.85,0,0,0,102.55,48.72Z"/><path class="cls-20" d="M78.79,51.38c-5.38-2.23-10.25-6.8-15-7.74-3.14-.62-6.56.82-8,1.69h0c.08.16.35.64.58,1l0,0c.16.27.33.54.5.8h0c.35.54.72,1.06,1.11,1.57l0,0c.38.49.77,1,1.17,1.44l.07.08c.4.46.81.9,1.24,1.33l.09.09.15.15c.9-.88,3.51-2.68,8.94-.88C76.18,53.18,79,56.13,85,56c.55,0,1.12,0,1.73-.11a25.52,25.52,0,0,0,15.72-7.12C101.58,49.47,91.36,56.61,78.79,51.38Z"/><path class="cls-21" d="M102.56,48.71c-21.15,6.4-23.13-10.59-37.31-14.36-5.74-1.53-10-.66-12.69.47a27.57,27.57,0,0,0,2.45,9h0a13,13,0,0,1,9.78-1.13c5.8,1.48,12.49,8.54,19.68,9.78,9.8,1.69,18.09-3.72,18.09-3.72Z"/></g></g></g></svg>